<svg id="svg" xmlns="http://www.w3.org/2000/svg" xmlns:xlink="http://www.w3.org/1999/xlink" width="400" height="281.6666666666667" viewBox="0, 0, 400,281.6666666666667"><g id="svgg"><path id="path0" d="M185.000 0.833 C 185.000 1.292,184.050 1.667,182.890 1.667 C 176.229 1.667,154.059 14.075,153.484 18.125 C 153.101 20.822,153.712 20.590,162.841 14.571 C 173.297 7.676,178.038 6.291,197.184 4.534 C 216.758 2.738,221.274 3.750,236.353 13.313 C 240.214 15.762,242.538 16.483,242.463 15.208 C 242.341 13.142,222.136 1.720,218.542 1.685 C 217.510 1.675,216.667 1.292,216.667 0.833 C 216.667 0.307,210.833 0.000,200.833 0.000 C 190.833 0.000,185.000 0.307,185.000 0.833 M183.750 11.755 C 177.232 12.693,168.773 16.920,159.985 23.632 C 151.370 30.212,144.859 36.136,146.980 35.466 C 159.957 31.365,203.109 29.822,238.333 32.200 L 245.417 32.678 236.667 26.829 C 231.854 23.611,225.480 18.998,222.501 16.576 C 218.525 13.343,216.089 12.008,213.335 11.553 C 208.347 10.728,190.021 10.854,183.750 11.755 M213.985 15.460 C 215.689 16.171,218.958 18.008,221.250 19.541 C 223.542 21.075,228.164 23.901,231.523 25.822 C 239.393 30.325,239.561 30.272,221.132 29.076 C 200.451 27.734,171.121 27.729,164.288 29.068 C 161.376 29.638,158.801 29.912,158.566 29.677 C 157.113 28.224,171.558 19.205,179.311 16.725 C 187.467 14.117,208.895 13.335,213.985 15.460 M244.167 17.529 C 244.167 18.557,255.203 25.778,261.667 28.980 L 266.250 31.250 260.008 31.667 C 250.212 32.321,250.324 34.998,260.147 35.005 C 273.018 35.014,288.794 38.201,304.167 43.897 C 313.253 47.264,336.667 58.298,336.667 59.213 C 336.667 62.892,292.270 81.492,275.276 84.933 C 219.496 96.228,145.125 95.416,100.417 83.025 C 93.083 80.993,86.052 79.098,84.792 78.816 C 81.740 78.131,81.903 77.183,85.431 75.102 L 88.361 73.373 93.480 75.974 C 97.284 77.907,98.938 78.360,99.924 77.738 C 102.036 76.406,101.246 75.462,97.484 74.820 C 90.416 73.613,90.127 71.873,96.313 67.765 L 100.960 64.680 105.990 66.028 C 111.450 67.491,113.563 67.218,113.152 65.103 C 112.959 64.111,111.934 63.742,109.313 63.722 C 105.830 63.694,104.209 62.585,104.179 60.208 C 104.164 58.918,103.731 58.904,101.762 60.134 C 98.157 62.385,82.746 50.254,85.594 47.406 C 86.629 46.371,104.883 40.161,111.016 38.758 C 115.362 37.763,120.667 35.944,132.039 31.549 C 139.078 28.829,150.000 22.497,150.000 21.137 C 150.000 20.435,149.719 19.997,149.375 20.164 C 137.351 25.990,117.447 33.823,109.532 35.844 C 86.823 41.643,43.409 60.729,44.571 64.402 C 47.332 73.127,46.266 73.816,33.322 71.674 C 27.599 70.727,19.341 69.724,14.971 69.444 L 7.025 68.937 4.346 71.616 C 2.872 73.089,1.667 74.829,1.667 75.481 C 1.667 76.133,1.292 76.667,0.833 76.667 C 0.357 76.667,0.000 79.178,0.000 82.535 C 0.000 90.385,0.935 91.332,10.298 92.966 C 21.203 94.869,43.128 102.017,45.578 104.467 C 46.192 105.080,48.555 135.046,49.991 160.417 C 50.899 176.458,52.079 194.833,52.614 201.250 C 53.338 209.939,53.349 215.043,52.659 221.250 L 51.731 229.583 57.430 235.040 C 80.610 257.231,124.077 271.739,179.758 275.867 C 248.484 280.962,304.623 266.806,336.192 236.421 L 342.429 230.417 341.583 222.083 C 340.938 215.735,341.041 209.681,342.016 196.667 C 342.721 187.271,343.685 172.083,344.159 162.917 C 344.633 153.750,345.620 138.188,346.352 128.333 C 347.085 118.479,347.736 109.479,347.800 108.333 C 347.881 106.896,347.483 106.247,346.517 106.239 C 345.747 106.234,344.841 105.952,344.503 105.614 C 344.165 105.276,344.255 105.000,344.702 105.000 C 345.149 105.000,346.243 104.410,347.132 103.688 C 348.709 102.409,348.703 102.386,346.873 102.777 C 345.710 103.026,344.720 102.686,344.271 101.884 C 343.115 99.817,339.667 106.730,337.570 115.317 C 335.458 123.969,334.180 126.713,331.154 129.093 C 327.241 132.171,326.562 131.521,327.096 125.208 C 327.683 118.268,329.122 106.906,329.739 104.342 C 330.057 103.016,329.856 102.508,329.077 102.675 C 327.108 103.099,327.224 99.151,329.243 97.002 C 330.278 95.901,330.710 95.000,330.205 95.000 C 327.171 95.000,326.141 99.394,324.153 120.833 C 323.664 126.104,323.049 131.441,322.788 132.693 C 321.914 136.872,325.980 137.416,331.203 133.819 C 339.193 128.316,340.477 126.356,341.611 117.927 C 343.443 104.304,343.982 110.213,342.522 127.917 C 339.429 165.432,336.365 219.766,337.095 224.174 C 337.628 227.396,334.049 230.729,318.479 241.513 C 304.600 251.126,282.461 258.995,254.583 264.223 C 247.407 265.569,247.002 265.724,251.667 265.340 C 281.122 262.912,315.475 249.689,335.257 233.166 C 337.460 231.325,339.438 229.994,339.652 230.208 C 340.251 230.807,331.984 237.615,321.840 244.876 C 296.159 263.260,265.868 271.705,217.083 274.084 C 165.666 276.592,102.722 263.008,72.424 242.866 C 65.284 238.119,65.342 237.381,72.555 241.207 C 87.538 249.157,133.619 264.800,136.610 262.952 C 136.997 262.712,141.551 263.075,146.729 263.758 C 160.111 265.523,159.718 265.244,144.390 262.094 C 125.041 258.118,95.833 249.350,95.833 247.518 C 95.833 247.157,97.372 245.471,99.252 243.772 L 102.670 240.684 105.085 242.998 C 106.846 244.685,107.500 244.959,107.500 244.008 C 107.500 243.291,106.938 242.237,106.250 241.667 C 104.712 240.390,104.611 238.333,106.087 238.333 C 106.684 238.333,108.445 239.646,110.000 241.250 C 111.555 242.854,113.378 244.167,114.052 244.167 C 114.741 244.167,113.757 242.763,111.805 240.961 C 108.615 238.016,107.246 235.000,109.100 235.000 C 109.521 235.000,111.971 236.925,114.545 239.277 C 119.668 243.959,121.779 244.377,117.347 239.832 C 111.668 234.008,111.340 233.481,112.514 232.066 C 113.458 230.929,114.137 231.340,117.992 235.384 C 120.412 237.923,122.992 240.000,123.725 240.000 C 125.769 240.000,124.019 237.340,119.584 233.706 C 115.306 230.201,115.136 229.600,117.660 226.913 L 119.487 224.968 122.981 228.397 C 125.083 230.460,127.075 231.710,127.982 231.536 C 129.098 231.321,127.775 229.812,122.869 225.709 C 114.607 218.799,112.172 216.204,112.879 215.062 C 114.021 213.213,116.689 214.289,120.162 218.000 C 123.777 221.862,128.333 224.884,128.333 223.419 C 128.333 222.985,126.250 220.849,123.704 218.674 C 117.853 213.675,116.810 211.891,118.886 210.434 C 119.728 209.843,121.354 208.564,122.500 207.592 L 124.583 205.825 121.296 202.985 C 118.468 200.541,118.162 199.960,119.107 198.822 C 120.633 196.983,121.635 197.157,124.321 199.731 C 125.601 200.958,126.934 201.667,127.283 201.306 C 127.632 200.945,125.326 198.269,122.160 195.360 C 117.248 190.846,116.560 189.882,117.471 188.785 C 119.047 186.886,120.013 187.174,123.507 190.586 C 127.270 194.261,127.843 192.543,124.131 188.713 C 121.895 186.406,121.747 185.971,122.881 185.030 C 123.588 184.443,124.167 183.446,124.167 182.815 C 124.167 181.396,121.527 181.307,120.154 182.679 C 119.359 183.474,118.565 183.116,116.465 181.016 L 113.789 178.340 115.584 176.546 L 117.378 174.752 120.246 177.793 C 122.948 180.658,125.000 181.677,125.000 180.153 C 125.000 179.779,123.600 178.234,121.889 176.719 L 118.779 173.965 122.729 170.524 C 126.975 166.827,127.558 165.395,125.132 164.625 C 124.288 164.357,122.765 163.252,121.748 162.169 L 119.898 160.201 122.184 158.403 C 123.441 157.414,124.893 156.767,125.411 156.966 C 126.634 157.435,130.993 150.550,130.416 149.059 C 130.173 148.431,128.855 147.278,127.487 146.497 C 126.119 145.716,125.000 144.498,125.000 143.789 C 125.000 142.140,126.162 142.138,127.529 143.785 C 129.005 145.563,130.428 144.023,129.284 141.885 C 128.805 140.991,127.083 139.244,125.457 138.004 C 120.729 134.398,122.337 130.216,127.346 133.091 C 130.763 135.052,131.301 134.183,129.208 130.081 C 127.462 126.659,126.252 125.826,125.650 127.632 C 125.251 128.831,121.667 125.948,121.667 124.427 C 121.667 121.546,125.157 121.467,127.736 124.291 C 129.437 126.153,130.402 126.710,130.648 125.971 C 130.851 125.363,129.944 123.743,128.633 122.371 L 126.250 119.877 128.542 118.202 C 129.802 117.281,130.833 116.184,130.833 115.764 C 130.833 114.471,128.666 114.915,126.443 116.664 L 124.328 118.328 121.320 115.320 C 119.176 113.176,118.017 112.549,117.281 113.135 C 114.338 115.482,110.732 114.827,107.496 111.357 L 104.342 107.976 101.240 109.613 C 98.190 111.222,98.122 111.223,97.194 109.656 C 95.451 106.714,93.381 105.034,92.102 105.525 C 90.238 106.240,90.524 107.124,93.542 109.971 C 95.782 112.084,96.036 112.661,95.013 113.308 C 94.134 113.863,93.230 113.577,91.891 112.319 C 89.707 110.267,88.334 110.976,89.836 113.381 C 90.671 114.718,90.609 115.400,89.500 117.093 C 87.957 119.448,88.719 119.830,90.945 117.816 C 91.766 117.073,93.014 116.686,93.719 116.956 C 95.894 117.791,95.144 120.395,91.875 123.367 C 88.767 126.191,88.762 126.209,90.833 126.508 C 94.089 126.977,94.534 127.959,92.977 131.240 C 92.069 133.154,91.744 135.122,92.082 136.660 C 92.553 138.807,92.244 139.307,89.293 141.170 C 87.467 142.323,85.717 143.681,85.403 144.188 C 84.179 146.169,85.716 145.679,89.888 142.759 L 94.246 139.709 95.919 141.382 L 97.592 143.055 94.675 145.054 C 90.706 147.774,89.275 150.833,91.972 150.833 C 97.135 150.833,97.200 153.661,92.173 159.587 C 89.603 162.616,87.500 165.462,87.500 165.910 C 87.500 167.210,90.677 165.183,91.734 163.208 C 92.660 161.478,92.707 161.489,95.229 164.011 C 97.974 166.756,97.294 169.743,94.112 168.911 C 92.991 168.618,92.595 169.262,92.233 171.962 C 91.689 176.014,92.018 176.536,94.238 175.149 C 98.408 172.545,98.517 176.454,94.375 180.009 C 90.628 183.225,85.883 189.159,85.854 190.666 C 85.821 192.414,87.959 190.767,90.779 186.875 C 93.711 182.827,94.813 182.557,97.355 185.262 C 100.558 188.671,98.257 191.914,94.419 189.399 C 92.863 188.379,92.250 188.337,91.236 189.179 C 89.816 190.357,90.967 192.500,93.019 192.500 C 94.930 192.500,94.359 193.503,89.840 198.078 C 84.011 203.981,85.170 204.535,91.274 198.763 C 96.891 193.451,96.831 193.469,99.106 196.362 C 101.309 199.162,101.288 200.531,99.025 201.743 C 97.458 202.581,97.003 202.418,95.622 200.522 C 94.745 199.318,93.684 198.333,93.264 198.333 C 91.895 198.333,92.459 201.099,94.208 202.961 L 95.916 204.779 91.094 209.414 C 88.441 211.963,86.529 214.307,86.844 214.622 C 87.160 214.938,89.618 213.098,92.306 210.534 L 97.193 205.872 99.895 208.145 C 103.176 210.904,101.883 214.838,98.395 212.708 C 95.144 210.723,93.440 212.420,96.458 214.638 C 97.822 215.640,97.779 215.862,95.792 218.063 C 91.094 223.266,91.113 223.167,94.233 226.017 C 96.101 227.722,96.702 228.738,95.984 228.977 C 95.384 229.178,93.573 227.799,91.960 225.915 C 90.347 224.030,88.683 222.700,88.263 222.960 C 86.914 223.794,87.434 224.990,90.462 228.017 C 93.404 230.960,93.858 232.917,91.597 232.917 C 90.929 232.917,90.302 231.922,90.153 230.625 C 89.869 228.154,88.290 227.628,86.744 229.490 C 85.994 230.394,86.234 231.181,87.837 233.087 L 89.890 235.527 87.941 237.971 C 86.067 240.322,85.917 241.667,87.528 241.667 C 87.947 241.667,88.890 240.508,89.622 239.092 C 90.856 236.705,91.060 236.614,92.417 237.842 C 95.072 240.244,97.334 239.568,94.990 237.072 C 91.625 233.490,94.147 232.569,98.263 235.877 C 102.456 239.246,102.458 239.453,98.333 242.182 C 95.286 244.199,94.622 245.107,94.901 246.875 C 95.401 250.037,69.881 235.396,62.148 228.084 C 57.707 223.884,57.501 223.504,57.527 219.552 C 57.551 215.735,57.647 215.541,58.777 217.034 C 59.449 217.924,60.000 218.916,60.000 219.239 C 60.000 220.271,67.802 224.819,71.093 225.705 C 75.959 227.016,74.660 225.262,66.929 220.082 C 59.055 214.806,57.500 212.590,57.500 206.640 L 57.500 202.288 61.300 205.791 C 65.485 209.648,70.311 212.045,72.332 211.270 C 73.269 210.910,72.094 209.734,68.167 207.100 C 65.159 205.082,61.911 202.378,60.950 201.090 C 59.989 199.803,58.672 198.188,58.023 197.500 C 57.053 196.473,55.681 187.498,56.494 187.499 C 56.628 187.500,58.811 189.065,61.345 190.978 C 65.149 193.850,66.758 194.523,70.582 194.840 C 76.209 195.307,76.627 193.213,71.059 192.455 C 67.659 191.992,60.304 186.843,57.215 182.761 C 55.458 180.441,52.779 151.285,51.218 117.500 L 50.852 109.583 53.230 119.025 C 56.430 131.735,64.127 139.943,69.500 136.376 C 71.458 135.075,71.745 108.628,69.865 102.643 L 68.995 99.870 67.736 102.227 C 66.697 104.173,66.566 106.940,66.984 118.125 C 67.541 133.057,67.552 133.029,62.473 130.403 C 59.143 128.681,57.751 125.634,55.717 115.618 C 54.763 110.924,53.593 106.333,53.115 105.417 C 51.817 102.927,48.433 99.997,47.883 100.888 C 47.618 101.316,47.799 101.667,48.284 101.667 C 48.770 101.667,49.167 102.073,49.167 102.569 C 49.167 104.226,47.136 102.821,46.669 100.842 C 46.105 98.455,39.845 96.165,23.750 92.458 C 17.792 91.086,10.899 89.385,8.432 88.677 L 3.948 87.390 4.429 83.323 C 5.789 71.840,10.267 70.978,19.990 80.328 C 28.676 88.681,44.433 96.520,47.124 93.828 C 47.908 93.045,49.093 92.613,49.759 92.869 C 50.425 93.124,51.126 93.333,51.318 93.333 C 51.510 93.333,51.667 94.271,51.667 95.417 C 51.667 96.563,52.042 97.500,52.500 97.500 C 52.958 97.500,53.332 96.469,53.329 95.208 C 53.325 93.059,52.819 92.741,45.204 90.089 C 28.496 84.271,21.026 79.864,23.276 77.153 C 25.003 75.071,28.930 74.811,36.050 76.305 C 43.829 77.937,44.895 78.535,43.350 80.397 C 42.452 81.479,42.522 81.976,43.764 83.349 C 47.004 86.929,48.333 85.086,48.333 77.015 C 48.333 70.213,48.391 70.221,58.638 78.447 C 67.932 85.909,71.053 87.535,84.588 91.962 C 97.642 96.233,106.289 98.066,120.484 99.571 C 127.322 100.297,137.604 101.631,143.333 102.536 C 175.742 107.658,235.925 107.208,264.205 101.631 C 290.592 96.427,317.200 86.473,337.425 74.239 C 346.100 68.991,345.833 68.969,345.833 74.946 C 345.833 77.666,346.220 80.908,346.692 82.150 L 347.551 84.409 349.567 82.516 C 351.041 81.131,351.466 80.034,351.150 78.436 C 350.726 76.290,350.868 76.215,358.953 74.320 C 383.712 68.516,372.071 82.214,345.530 90.113 C 339.993 91.761,335.369 94.174,339.791 93.108 C 340.822 92.860,341.870 92.989,342.121 93.395 C 342.380 93.814,343.190 93.779,343.997 93.313 C 344.778 92.863,351.604 90.419,359.167 87.881 C 375.619 82.362,376.825 81.586,377.452 76.125 C 377.848 72.683,378.207 72.042,379.871 71.807 C 385.532 71.005,390.542 77.118,389.778 83.896 C 389.084 90.049,388.346 90.346,364.583 94.026 C 350.469 96.213,349.167 96.723,349.167 100.077 C 349.167 102.503,349.335 102.656,351.458 102.175 C 352.719 101.890,357.125 101.086,361.250 100.390 C 382.431 96.814,387.592 95.193,392.708 90.511 C 395.155 88.271,396.074 80.371,394.152 78.090 C 393.686 77.536,392.467 75.805,391.444 74.243 C 387.856 68.767,385.823 67.904,376.809 68.028 C 369.532 68.128,354.710 70.037,351.425 71.298 C 349.023 72.220,347.983 68.625,349.935 66.144 C 351.544 64.098,351.555 63.910,350.185 61.985 C 346.350 56.595,309.337 40.345,284.823 33.288 C 277.651 31.224,265.364 26.318,253.842 20.919 C 243.757 16.193,244.167 16.337,244.167 17.529 M172.500 35.963 C 158.258 37.063,144.731 40.404,131.858 46.003 L 124.133 49.363 120.263 46.348 C 116.657 43.539,113.333 42.425,113.333 44.026 C 113.333 44.407,114.302 45.237,115.487 45.871 C 118.622 47.549,121.102 51.253,119.782 52.286 C 116.340 54.977,111.473 53.746,105.995 48.797 C 101.536 44.768,100.976 46.148,105.000 51.250 C 107.555 54.488,108.127 55.822,107.758 57.669 C 107.247 60.223,107.942 60.522,111.074 59.095 C 112.683 58.362,113.597 58.519,115.904 59.926 C 119.598 62.177,123.333 62.259,123.333 60.089 C 123.333 58.417,121.797 57.500,118.996 57.500 C 116.224 57.500,118.771 55.177,122.807 54.025 C 124.701 53.484,130.375 51.061,135.417 48.639 C 155.345 39.066,165.081 37.188,195.000 37.146 C 206.688 37.130,215.313 37.005,214.167 36.869 C 207.988 36.132,178.588 35.493,172.500 35.963 M221.875 38.097 C 223.135 38.288,225.198 38.288,226.458 38.097 C 227.719 37.906,226.688 37.750,224.167 37.750 C 221.646 37.750,220.615 37.906,221.875 38.097 M82.500 49.835 C 82.500 50.930,90.939 59.213,94.362 61.478 L 97.533 63.577 93.316 66.417 C 90.679 68.193,88.528 69.076,87.578 68.775 C 85.501 68.115,76.414 58.541,74.676 55.179 L 73.264 52.449 76.841 50.826 C 80.679 49.084,82.500 48.765,82.500 49.835 M72.917 58.444 C 75.294 62.480,82.674 70.000,84.257 70.000 C 86.112 70.000,84.668 71.710,81.155 73.673 L 77.310 75.822 75.114 73.927 C 71.806 71.073,60.833 59.536,60.833 58.911 C 60.833 58.279,68.342 54.255,69.583 54.222 C 70.042 54.210,71.542 56.109,72.917 58.444 M62.936 66.722 C 71.965 75.851,75.940 78.626,84.881 82.038 C 123.461 96.761,207.961 100.325,272.500 89.953 C 288.251 87.422,320.727 73.900,335.734 63.624 C 341.318 59.801,342.965 59.454,344.437 61.791 C 346.065 64.376,342.968 67.026,330.709 73.534 C 299.383 90.165,279.252 96.515,250.625 98.795 C 245.397 99.211,244.156 99.573,244.108 100.696 C 244.061 101.801,243.904 101.744,243.333 100.417 C 242.667 98.866,242.613 98.858,242.559 100.310 C 242.510 101.602,242.285 101.692,241.249 100.833 C 240.261 100.012,237.049 99.991,225.934 100.731 C 218.199 101.245,202.168 101.664,190.310 101.660 C 171.242 101.655,163.977 101.203,155.625 99.501 C 153.809 99.131,153.313 99.351,153.237 100.559 C 153.148 101.953,153.108 101.959,152.759 100.625 C 152.549 99.823,152.008 99.167,151.556 99.167 C 151.105 99.167,150.951 99.516,151.214 99.942 C 151.478 100.369,151.313 100.954,150.847 101.242 C 150.381 101.529,150.000 101.213,150.000 100.539 C 150.000 99.197,148.649 98.913,135.417 97.466 C 97.767 93.348,72.383 86.150,59.358 75.896 C 56.893 73.955,49.167 64.751,49.167 63.755 C 49.167 63.389,54.775 60.315,55.853 60.091 C 56.093 60.041,59.280 63.025,62.936 66.722 M48.333 95.417 C 48.333 96.104,48.708 96.667,49.167 96.667 C 49.625 96.667,50.000 96.104,50.000 95.417 C 50.000 94.729,49.625 94.167,49.167 94.167 C 48.708 94.167,48.333 94.729,48.333 95.417 M55.000 96.111 C 55.000 98.865,55.733 99.271,58.012 97.777 C 60.428 96.195,60.633 94.687,58.333 95.417 C 57.377 95.720,56.667 95.566,56.667 95.056 C 56.667 94.567,56.292 94.167,55.833 94.167 C 55.375 94.167,55.000 95.042,55.000 96.111 M332.319 96.689 C 332.088 98.265,332.287 99.101,332.849 98.917 C 333.979 98.547,334.563 94.167,333.483 94.167 C 333.047 94.167,332.523 95.302,332.319 96.689 M61.667 98.333 C 61.667 99.708,62.042 100.833,62.500 100.833 C 62.958 100.833,63.333 99.708,63.333 98.333 C 63.333 96.958,62.958 95.833,62.500 95.833 C 62.042 95.833,61.667 96.958,61.667 98.333 M65.000 99.167 C 65.000 100.542,65.375 101.667,65.833 101.667 C 66.292 101.667,66.667 100.542,66.667 99.167 C 66.667 97.792,66.292 96.667,65.833 96.667 C 65.375 96.667,65.000 97.792,65.000 99.167 M328.897 99.502 C 328.376 100.859,329.076 101.821,330.116 101.178 C 331.063 100.593,331.041 98.333,330.089 98.333 C 329.680 98.333,329.143 98.859,328.897 99.502 M346.205 99.239 C 345.897 99.738,346.063 100.563,346.573 101.073 C 347.254 101.754,347.500 101.513,347.500 100.167 C 347.500 98.155,347.067 97.845,346.205 99.239 M103.750 113.333 C 103.467 113.792,102.695 114.167,102.034 114.167 C 101.374 114.167,100.833 113.792,100.833 113.333 C 100.833 112.875,101.605 112.500,102.549 112.500 C 103.493 112.500,104.033 112.875,103.750 113.333 M149.924 116.171 C 153.220 119.572,160.000 124.554,160.000 123.575 C 160.000 122.022,154.630 116.512,151.619 114.976 C 147.105 112.673,146.765 112.912,149.924 116.171 M99.065 114.920 C 100.371 115.747,99.627 117.500,97.970 117.500 C 96.257 117.500,94.674 115.265,96.007 114.730 C 97.571 114.103,97.797 114.117,99.065 114.920 M109.547 116.456 C 109.827 117.186,109.575 118.089,108.987 118.462 C 106.482 120.051,103.052 117.043,105.405 115.322 C 107.073 114.102,108.828 114.583,109.547 116.456 M118.978 116.815 C 118.390 118.581,115.976 119.642,114.929 118.596 C 114.406 118.073,114.231 117.238,114.538 116.739 C 115.307 115.496,119.395 115.566,118.978 116.815 M102.877 119.300 C 105.139 120.331,105.542 121.233,104.130 122.106 C 102.991 122.810,98.967 120.164,99.606 119.130 C 100.226 118.127,100.311 118.131,102.877 119.300 M113.654 120.727 C 114.992 122.206,114.969 122.314,113.222 122.771 C 110.890 123.381,110.000 122.832,110.000 120.784 C 110.000 118.731,111.822 118.703,113.654 120.727 M122.312 120.149 C 121.828 121.599,119.348 122.960,118.583 122.194 C 118.218 121.829,118.647 120.999,119.536 120.349 C 121.502 118.911,122.754 118.821,122.312 120.149 M100.598 123.028 C 101.031 124.350,98.394 126.802,96.863 126.500 C 94.751 126.083,93.525 123.433,95.000 122.469 C 96.591 121.429,100.192 121.789,100.598 123.028 M108.363 124.619 C 109.147 125.564,109.184 126.150,108.500 126.833 C 107.396 127.938,105.000 126.328,105.000 124.481 C 105.000 122.940,107.038 123.023,108.363 124.619 M116.503 126.355 C 114.537 128.320,112.819 126.950,114.676 124.898 C 115.672 123.797,116.397 123.563,116.986 124.153 C 117.576 124.743,117.424 125.433,116.503 126.355 M104.043 127.612 C 104.969 129.095,104.968 129.508,104.035 130.099 C 100.820 132.137,97.421 129.171,100.441 126.963 C 102.477 125.474,102.737 125.520,104.043 127.612 M121.303 128.226 C 123.269 129.773,123.272 129.797,121.643 131.272 C 120.066 132.699,119.933 132.698,118.333 131.250 C 115.956 129.098,116.223 127.381,119.035 126.732 C 119.192 126.696,120.213 127.368,121.303 128.226 M112.500 129.435 C 112.500 129.987,113.309 130.808,114.299 131.261 C 117.290 132.629,118.994 135.833,116.730 135.833 C 115.594 135.833,114.395 134.906,113.503 133.339 C 112.722 131.967,111.615 130.842,111.042 130.839 C 109.952 130.833,109.614 128.997,110.533 128.078 C 111.261 127.351,112.500 128.205,112.500 129.435 M98.137 132.185 C 99.384 133.432,99.367 133.626,97.919 134.685 C 94.863 136.919,91.881 134.838,94.175 132.073 C 95.497 130.481,96.460 130.508,98.137 132.185 M108.714 131.609 C 108.978 132.036,108.813 132.620,108.347 132.908 C 106.883 133.813,107.427 135.136,109.051 134.620 C 111.166 133.949,114.613 136.801,113.908 138.639 C 113.075 140.811,110.896 141.238,109.611 139.481 C 108.091 137.401,106.845 138.760,108.234 140.983 C 109.186 142.508,109.074 142.971,107.333 144.713 L 105.345 146.701 103.148 144.392 L 100.951 142.083 103.051 139.657 C 104.588 137.882,105.327 137.515,105.805 138.288 C 106.227 138.970,106.458 138.599,106.458 137.238 C 106.458 135.794,106.098 135.270,105.313 135.572 C 104.587 135.850,104.167 135.428,104.167 134.422 C 104.167 131.670,107.484 129.618,108.714 131.609 M146.667 132.495 C 146.667 134.504,152.726 141.743,157.373 145.283 C 165.028 151.116,164.973 150.740,156.885 141.935 C 147.895 132.148,146.667 131.013,146.667 132.495 M103.307 136.964 C 103.245 139.225,99.152 141.131,97.934 139.466 C 96.624 137.674,96.996 136.801,99.460 135.884 C 101.553 135.106,103.344 135.609,103.307 136.964 M121.809 138.046 C 123.549 139.620,123.788 140.833,122.357 140.833 C 121.194 140.833,118.333 138.372,118.333 137.371 C 118.333 136.213,120.180 136.572,121.809 138.046 M119.275 141.587 C 121.207 143.151,121.213 143.200,119.655 144.921 C 117.695 147.086,117.613 147.080,114.713 144.529 C 110.658 140.963,115.026 138.146,119.275 141.587 M144.167 141.501 C 144.167 143.495,160.488 160.853,162.352 160.841 C 163.381 160.834,151.129 146.225,146.326 141.730 C 144.188 139.729,144.167 139.727,144.167 141.501 M101.464 149.882 L 98.949 151.998 96.926 149.646 L 94.903 147.294 96.720 145.360 L 98.538 143.425 101.258 145.596 L 103.978 147.766 101.464 149.882 M113.712 146.288 C 117.733 150.308,113.211 154.292,109.099 150.352 L 106.668 148.023 108.479 146.095 C 110.753 143.674,111.112 143.688,113.712 146.288 M125.777 148.034 C 128.602 151.626,124.983 154.252,121.524 151.121 C 119.728 149.496,119.631 148.682,121.042 147.080 C 122.587 145.325,123.846 145.579,125.777 148.034 M109.383 153.059 C 111.266 157.192,105.179 159.155,101.761 155.517 L 99.898 153.534 102.613 151.409 C 105.720 148.977,107.749 149.472,109.383 153.059 M121.195 153.272 C 123.043 155.315,119.416 158.971,116.885 157.617 C 113.468 155.788,112.795 154.118,114.816 152.482 C 116.875 150.814,119.235 151.107,121.195 153.272 M55.869 156.207 C 53.478 159.088,67.202 170.437,72.355 169.841 C 74.386 169.606,74.124 169.303,69.407 166.417 C 64.495 163.413,62.052 161.246,58.552 156.789 C 57.139 154.990,56.919 154.942,55.869 156.207 M101.718 158.385 C 103.726 160.393,103.552 162.771,101.366 163.192 C 99.145 163.620,94.749 159.223,95.951 157.775 C 97.292 156.159,99.752 156.418,101.718 158.385 M115.113 157.975 L 117.643 159.283 114.446 162.068 L 111.250 164.853 109.375 163.114 C 104.950 159.012,109.404 155.023,115.113 157.975 M120.076 163.476 C 120.882 164.982,120.782 165.476,119.481 166.429 C 114.697 169.927,110.788 168.128,114.578 164.172 C 117.427 161.199,118.767 161.029,120.076 163.476 M107.854 163.767 C 109.277 164.843,109.332 165.217,108.339 167.074 C 106.641 170.246,102.500 169.366,102.500 165.833 C 102.500 162.811,105.209 161.766,107.854 163.767 M144.167 163.932 C 144.167 165.522,146.966 168.401,152.020 172.007 C 154.973 174.114,157.627 176.587,157.918 177.503 C 158.208 178.418,158.983 179.167,159.639 179.167 C 161.365 179.167,161.105 177.684,159.167 176.473 C 158.250 175.901,157.500 175.035,157.500 174.549 C 157.500 174.063,154.969 171.597,151.875 169.069 C 145.426 163.799,144.167 162.959,144.167 163.932 M111.051 170.500 C 108.053 172.775,106.460 171.697,108.876 169.027 C 109.929 167.864,110.520 167.727,111.386 168.446 C 112.327 169.227,112.270 169.574,111.051 170.500 M102.010 170.242 C 103.312 172.306,100.640 174.902,98.792 173.368 C 97.240 172.080,97.143 170.690,98.510 169.323 C 99.736 168.097,100.839 168.387,102.010 170.242 M55.833 170.157 C 55.833 171.401,59.366 176.653,60.208 176.661 C 61.242 176.670,60.912 175.167,59.792 174.767 C 59.219 174.562,59.022 174.103,59.355 173.745 C 60.339 172.689,62.650 175.168,62.219 176.818 C 61.479 179.649,70.121 184.194,73.661 182.836 C 75.586 182.097,75.313 180.000,73.292 180.000 C 70.763 180.000,67.467 178.070,61.983 173.375 C 56.913 169.036,55.833 168.471,55.833 170.157 M115.000 173.236 C 115.000 175.061,112.516 175.958,110.535 174.850 C 107.925 173.389,109.134 172.306,113.958 171.780 C 114.531 171.718,115.000 172.373,115.000 173.236 M108.666 176.107 C 110.360 178.387,110.366 178.500,108.875 179.593 C 105.939 181.743,100.339 177.187,102.588 174.478 C 104.061 172.703,106.654 173.397,108.666 176.107 M102.362 179.664 C 104.295 181.018,104.599 184.174,102.853 184.748 C 101.619 185.153,97.500 181.210,97.500 179.623 C 97.500 177.952,99.947 177.972,102.362 179.664 M145.833 179.773 C 145.833 182.446,153.193 190.467,160.000 195.213 C 163.595 197.719,163.504 197.554,157.783 191.205 C 150.106 182.686,145.833 178.598,145.833 179.773 M114.471 181.727 C 116.855 183.602,117.307 185.931,115.568 187.374 C 113.259 189.291,108.108 183.530,110.044 181.197 C 111.355 179.618,111.868 179.679,114.471 181.727 M109.676 186.952 C 111.839 188.812,112.089 191.667,110.090 191.667 C 108.082 191.667,104.120 187.310,105.078 186.156 C 106.390 184.576,107.046 184.689,109.676 186.952 M106.140 191.762 C 107.593 193.837,107.276 195.052,104.896 196.539 C 102.081 198.296,97.398 192.880,99.722 190.556 C 100.965 189.313,104.949 190.063,106.140 191.762 M116.741 193.226 C 118.536 194.680,118.573 194.880,117.282 196.170 C 115.777 197.676,113.005 196.686,112.097 194.318 C 111.011 191.488,113.788 190.835,116.741 193.226 M112.526 197.354 L 114.404 198.874 111.992 201.574 L 109.581 204.273 107.211 201.800 L 104.841 199.326 106.587 197.580 C 108.731 195.435,110.093 195.384,112.526 197.354 M146.540 201.458 C 149.263 205.231,158.174 213.022,162.500 215.411 C 164.453 216.489,153.322 204.893,149.502 201.870 C 145.325 198.563,144.354 198.429,146.540 201.458 M118.479 202.215 C 119.945 203.542,119.899 203.663,117.330 205.225 C 114.801 206.763,114.739 206.915,116.205 207.987 C 117.630 209.029,117.642 209.165,116.347 209.661 C 112.569 211.111,110.890 206.770,113.958 203.485 C 116.761 200.484,116.612 200.526,118.479 202.215 M105.810 203.726 C 107.732 205.771,107.176 208.333,104.810 208.333 C 102.809 208.333,99.365 204.439,100.140 203.053 C 101.252 201.067,103.571 201.342,105.810 203.726 M111.683 209.601 C 113.480 211.513,113.539 211.819,112.342 213.015 C 109.923 215.434,105.402 211.278,107.588 208.644 C 108.898 207.066,109.415 207.187,111.683 209.601 M107.067 213.853 C 108.002 214.787,108.258 215.948,107.894 217.603 C 107.347 220.095,108.140 220.694,109.795 219.038 C 110.761 218.072,116.667 221.688,116.667 223.247 C 116.667 227.536,111.633 227.030,108.465 222.422 C 107.392 220.861,106.159 219.682,105.726 219.802 C 105.292 219.922,104.044 218.985,102.952 217.719 C 99.861 214.137,103.724 210.509,107.067 213.853 M142.977 215.735 C 142.218 216.964,145.404 220.309,152.505 225.736 C 160.391 231.762,159.983 230.160,151.376 221.298 C 145.450 215.196,143.932 214.191,142.977 215.735 M102.101 220.020 C 104.211 222.351,102.478 224.326,100.162 222.230 C 99.313 221.462,98.180 220.833,97.643 220.833 C 96.251 220.833,96.436 222.937,97.937 224.183 C 98.635 224.763,99.013 225.432,98.775 225.669 C 98.058 226.386,95.000 223.175,95.000 221.704 C 95.000 218.263,99.537 217.186,102.101 220.020 M108.459 225.703 C 111.119 228.080,111.373 230.833,108.932 230.833 C 107.123 230.833,103.056 226.091,103.616 224.633 C 104.332 222.767,105.450 223.014,108.459 225.703 M104.597 230.124 C 106.663 231.937,107.318 233.015,106.720 233.613 C 105.803 234.530,102.239 231.762,100.727 228.958 C 99.487 226.658,101.257 227.191,104.597 230.124 M100.913 232.557 C 102.244 233.505,103.333 235.024,103.333 235.932 C 103.333 237.479,103.151 237.446,100.489 235.415 C 95.555 231.652,95.946 229.020,100.913 232.557 M145.000 233.686 C 145.000 234.328,161.113 248.425,162.865 249.317 C 165.338 250.575,154.478 239.592,149.888 236.193 C 146.256 233.503,145.000 232.859,145.000 233.686 M205.000 269.979 C 183.773 270.400,183.353 270.439,194.167 270.995 C 204.922 271.548,235.563 270.548,236.498 269.613 C 236.743 269.368,234.726 269.251,232.014 269.354 C 229.302 269.457,217.146 269.738,205.000 269.979 " stroke="none" fill="#000000" fill-rule="evenodd"></path></g></svg>