<svg xmlns="http://www.w3.org/2000/svg" viewBox="0 0 1330 273.97"><g id="Layer_2" data-name="Layer 2"><g id="Layer_1-2" data-name="Layer 1"><path d="M652.73,65.78c-61.55,0-106,43.24-106,103.61S591.18,273,652.73,273s105.94-43.23,105.94-103.61S714.27,65.78,652.73,65.78Zm27.13,133.78c-7.94,8.12-19.14,9.83-27.13,9.83-14.5,0-22.76-5.35-27.14-9.83-6.74-6.9-10.3-17.33-10.3-30.17s3.56-23.26,10.3-30.16c7.94-8.13,19.14-9.83,27.14-9.83,14.49,0,22.75,5.34,27.13,9.83,6.74,6.9,10.3,17.33,10.3,30.16S686.6,192.66,679.86,199.56Z" style="fill:#f68b24"/><path d="M1326,104.12V79.48a7.83,7.83,0,0,0-7.83-7.83H1176.27a7.82,7.82,0,0,0-7.83,7.83v39.44a7.82,7.82,0,0,0,7.83,7.83h60.61L1182.82,194a67.27,67.27,0,0,0-13.51,40.44v24.8a7.84,7.84,0,0,0,7.83,7.83h145a7.84,7.84,0,0,0,7.83-7.83V219.91a7.84,7.84,0,0,0-7.83-7.83h-61.9l52.06-67.3A67.21,67.21,0,0,0,1326,104.12Z" style="fill:#f68b24"/><path d="M1135.48,71.65H1108.1V40.72a7.83,7.83,0,0,0-7.83-7.83h-59.14a7.84,7.84,0,0,0-7.84,7.83V71.65h-22.07a7.83,7.83,0,0,0-7.83,7.83v39.44a7.83,7.83,0,0,0,7.83,7.83h22.07v83.67c0,41.58,24.3,62.58,68.35,62.58,12.41,0,30.21-3,36.35-5.22a7.86,7.86,0,0,0,5.33-7.42V218.47c0-5.35-4.6-9.23-9.52-7.43a72.71,72.71,0,0,1-9.92,1c-11.2,0-15.78-6.49-15.78-16.78V126.75h27.38a7.83,7.83,0,0,0,7.84-7.83V79.48A7.83,7.83,0,0,0,1135.48,71.65Z" style="fill:#f68b24"/><path d="M973.34,71.65H914.11a7.82,7.82,0,0,0-7.83,7.83V194.54c-1,2.86-7.12,17.46-27.4,17.46-17.15,0-25.54-10-25.54-33.34V79.48a7.83,7.83,0,0,0-7.83-7.83H786.27a7.82,7.82,0,0,0-7.83,7.83V186.26c0,55.3,26.13,86.74,74.9,86.74,23.8,0,42.11-11.94,52.94-21.47v7.75a7.83,7.83,0,0,0,7.83,7.83h59.23a7.84,7.84,0,0,0,7.84-7.83V79.48A7.83,7.83,0,0,0,973.34,71.65Z" style="fill:#f68b24"/><path d="M323,175.52c30.24-21.05,38.2-51.61,38.2-76.82a101.79,101.79,0,0,0-2.76-21.16,7.82,7.82,0,0,0-7.63-6.08H290.92a7.82,7.82,0,0,0-7.69,9.29,106.6,106.6,0,0,1-1.06,46.42c-6.65,26-29.88,23.88-29.88,23.88h0V7.83A7.84,7.84,0,0,0,244.45,0H185.37a7.84,7.84,0,0,0-7.83,7.83V259a7.84,7.84,0,0,0,7.83,7.83h59.08a7.84,7.84,0,0,0,7.84-7.83V198.73h0s1.62,0,4.58-.25l43.42,64.87a7.82,7.82,0,0,0,6.51,3.47h63a7.83,7.83,0,0,0,6.5-12.19Z" style="fill:#f68b24"/><path d="M109.25,151.7C97.19,145.7,79.07,140,81.4,128c1.67-8.68,10.07-9.43,16.08-9.43,6.53,0,23.4,4.71,33.24,7.64a7.83,7.83,0,0,0,9.71-5.22l10.29-33.62a7.85,7.85,0,0,0-4.28-9.44c-9.81-4.43-30.12-12.11-53.12-12.11-56.42,0-87.09,30.67-87.09,63.93,0,32,32.15,47.71,50.49,57.25,21.6,11.24,27,15.3,26.58,22.58C82.79,218.72,75.83,221,68.69,221c-12.73,0-35.62-7.58-47.44-11.82a7.84,7.84,0,0,0-10.09,4.89L.41,246.3a7.8,7.8,0,0,0,3.7,9.37c11.27,6,37.86,18.3,68,18.3,69.31,0,84.57-36.05,84.57-61.31C156.64,177.13,128,161,109.25,151.7Z" style="fill:#f68b24"/><path d="M527.91,66c-1.54-.13-3.1-.21-4.66-.21-2.48,0-29-1.61-55.14,21.35v-8a7.84,7.84,0,0,0-7.83-7.83H401a7.84,7.84,0,0,0-7.83,7.83V259.28a7.84,7.84,0,0,0,7.83,7.83h59.24a7.84,7.84,0,0,0,7.83-7.83v-99c0-14.55,16.13-23,30.76-23,11.23,0,22.51,4.68,24.27,5.39.35.13.69.28,1,.42A7.82,7.82,0,0,0,535,135.8v-62A7.81,7.81,0,0,0,527.91,66Z" style="fill:#f68b24"/></g></g></svg>